<mxfile host="app.diagrams.net" modified="2023-02-27T10:37:23.096Z" agent="5.0 (Windows NT 10.0; Win64; x64) AppleWebKit/537.36 (KHTML, like Gecko) Chrome/110.0.0.0 Safari/537.36" etag="921aAjXCf89CHCTxq7Ip" version="20.8.23" type="github">
  <diagram name="第 1 页" id="EkSsXJ8Pi0MIQyA6HioE">
    <mxGraphModel dx="1219" dy="732" grid="1" gridSize="10" guides="1" tooltips="1" connect="1" arrows="1" fold="1" page="1" pageScale="1" pageWidth="827" pageHeight="1169" math="0" shadow="0">
      <root>
        <mxCell id="0" />
        <mxCell id="1" parent="0" />
        <mxCell id="-LHFxUvGMFsfbQdIlnXL-1" value="" style="shape=table;startSize=0;container=1;collapsible=0;childLayout=tableLayout;fontSize=16;horizontal=0;" vertex="1" parent="1">
          <mxGeometry x="180" y="170" width="40" height="360" as="geometry" />
        </mxCell>
        <mxCell id="-LHFxUvGMFsfbQdIlnXL-2" value="" style="shape=tableRow;horizontal=0;startSize=0;swimlaneHead=0;swimlaneBody=0;strokeColor=inherit;top=0;left=0;bottom=0;right=0;collapsible=0;dropTarget=0;fillColor=none;points=[[0,0.5],[1,0.5]];portConstraint=eastwest;fontSize=16;" vertex="1" parent="-LHFxUvGMFsfbQdIlnXL-1">
          <mxGeometry width="40" height="280" as="geometry" />
        </mxCell>
        <mxCell id="-LHFxUvGMFsfbQdIlnXL-3" value="&lt;b&gt;Tag&lt;/b&gt;" style="shape=partialRectangle;html=1;whiteSpace=wrap;connectable=0;strokeColor=inherit;overflow=hidden;fillColor=none;top=0;left=0;bottom=0;right=0;pointerEvents=1;fontSize=16;horizontal=0;" vertex="1" parent="-LHFxUvGMFsfbQdIlnXL-2">
          <mxGeometry width="40" height="280" as="geometry">
            <mxRectangle width="40" height="280" as="alternateBounds" />
          </mxGeometry>
        </mxCell>
        <mxCell id="-LHFxUvGMFsfbQdIlnXL-10" value="" style="shape=tableRow;horizontal=0;startSize=0;swimlaneHead=0;swimlaneBody=0;strokeColor=inherit;top=0;left=0;bottom=0;right=0;collapsible=0;dropTarget=0;fillColor=none;points=[[0,0.5],[1,0.5]];portConstraint=eastwest;fontSize=16;" vertex="1" parent="-LHFxUvGMFsfbQdIlnXL-1">
          <mxGeometry y="280" width="40" height="80" as="geometry" />
        </mxCell>
        <mxCell id="-LHFxUvGMFsfbQdIlnXL-11" value="&lt;b&gt;Offset&lt;/b&gt;" style="shape=partialRectangle;html=1;whiteSpace=wrap;connectable=0;strokeColor=inherit;overflow=hidden;fillColor=none;top=0;left=0;bottom=0;right=0;pointerEvents=1;fontSize=16;horizontal=0;" vertex="1" parent="-LHFxUvGMFsfbQdIlnXL-10">
          <mxGeometry width="40" height="80" as="geometry">
            <mxRectangle width="40" height="80" as="alternateBounds" />
          </mxGeometry>
        </mxCell>
        <mxCell id="-LHFxUvGMFsfbQdIlnXL-15" value="" style="shape=table;startSize=0;container=1;collapsible=0;childLayout=tableLayout;fontSize=16;fillColor=#CFCFCF;strokeWidth=1;" vertex="1" parent="1">
          <mxGeometry x="320" y="80" width="320" height="40" as="geometry" />
        </mxCell>
        <mxCell id="-LHFxUvGMFsfbQdIlnXL-16" value="" style="shape=tableRow;horizontal=0;startSize=0;swimlaneHead=0;swimlaneBody=0;strokeColor=inherit;top=0;left=0;bottom=0;right=0;collapsible=0;dropTarget=0;fillColor=none;points=[[0,0.5],[1,0.5]];portConstraint=eastwest;fontSize=16;" vertex="1" parent="-LHFxUvGMFsfbQdIlnXL-15">
          <mxGeometry width="320" height="40" as="geometry" />
        </mxCell>
        <mxCell id="-LHFxUvGMFsfbQdIlnXL-17" value="" style="shape=partialRectangle;html=1;whiteSpace=wrap;connectable=0;strokeColor=inherit;overflow=hidden;fillColor=none;top=0;left=0;bottom=0;right=0;pointerEvents=1;fontSize=16;" vertex="1" parent="-LHFxUvGMFsfbQdIlnXL-16">
          <mxGeometry width="40" height="40" as="geometry">
            <mxRectangle width="40" height="40" as="alternateBounds" />
          </mxGeometry>
        </mxCell>
        <mxCell id="-LHFxUvGMFsfbQdIlnXL-18" value="" style="shape=partialRectangle;html=1;whiteSpace=wrap;connectable=0;strokeColor=inherit;overflow=hidden;fillColor=none;top=0;left=0;bottom=0;right=0;pointerEvents=1;fontSize=16;" vertex="1" parent="-LHFxUvGMFsfbQdIlnXL-16">
          <mxGeometry x="40" width="80" height="40" as="geometry">
            <mxRectangle width="80" height="40" as="alternateBounds" />
          </mxGeometry>
        </mxCell>
        <mxCell id="-LHFxUvGMFsfbQdIlnXL-19" value="" style="shape=partialRectangle;html=1;whiteSpace=wrap;connectable=0;strokeColor=inherit;overflow=hidden;fillColor=none;top=0;left=0;bottom=0;right=0;pointerEvents=1;fontSize=16;" vertex="1" parent="-LHFxUvGMFsfbQdIlnXL-16">
          <mxGeometry x="120" width="200" height="40" as="geometry">
            <mxRectangle width="200" height="40" as="alternateBounds" />
          </mxGeometry>
        </mxCell>
        <mxCell id="-LHFxUvGMFsfbQdIlnXL-29" value="&lt;font style=&quot;font-size: 18px;&quot;&gt;&lt;b&gt;==&lt;/b&gt;&lt;/font&gt;" style="ellipse;whiteSpace=wrap;html=1;aspect=fixed;strokeWidth=1;" vertex="1" parent="1">
          <mxGeometry x="370" y="140" width="60" height="60" as="geometry" />
        </mxCell>
        <mxCell id="-LHFxUvGMFsfbQdIlnXL-30" value="" style="endArrow=classic;html=1;rounded=0;fontSize=18;exitX=0.25;exitY=1;exitDx=0;exitDy=0;entryX=0.5;entryY=0;entryDx=0;entryDy=0;" edge="1" parent="1" source="-LHFxUvGMFsfbQdIlnXL-15" target="-LHFxUvGMFsfbQdIlnXL-29">
          <mxGeometry width="50" height="50" relative="1" as="geometry">
            <mxPoint x="370" y="240" as="sourcePoint" />
            <mxPoint x="420" y="190" as="targetPoint" />
          </mxGeometry>
        </mxCell>
        <mxCell id="-LHFxUvGMFsfbQdIlnXL-31" value="" style="shape=or;whiteSpace=wrap;html=1;strokeWidth=1;fontSize=18;fillColor=#FFFFFF;fontColor=#333333;strokeColor=#666666;" vertex="1" parent="1">
          <mxGeometry x="500" y="170" width="40" height="50" as="geometry" />
        </mxCell>
        <mxCell id="-LHFxUvGMFsfbQdIlnXL-32" value="" style="endArrow=classic;html=1;rounded=0;fontSize=18;exitX=1;exitY=0.5;exitDx=0;exitDy=0;entryX=0;entryY=0.2;entryDx=0;entryDy=0;entryPerimeter=0;" edge="1" parent="1" source="-LHFxUvGMFsfbQdIlnXL-29" target="-LHFxUvGMFsfbQdIlnXL-31">
          <mxGeometry width="50" height="50" relative="1" as="geometry">
            <mxPoint x="350" y="270" as="sourcePoint" />
            <mxPoint x="400" y="220" as="targetPoint" />
            <Array as="points">
              <mxPoint x="460" y="170" />
              <mxPoint x="460" y="180" />
            </Array>
          </mxGeometry>
        </mxCell>
        <mxCell id="-LHFxUvGMFsfbQdIlnXL-33" value="" style="endArrow=classic;html=1;rounded=0;fontSize=18;" edge="1" parent="1">
          <mxGeometry width="50" height="50" relative="1" as="geometry">
            <mxPoint x="340" y="100" as="sourcePoint" />
            <mxPoint x="500" y="210" as="targetPoint" />
            <Array as="points">
              <mxPoint x="340" y="220" />
              <mxPoint x="460" y="220" />
              <mxPoint x="460" y="210" />
            </Array>
          </mxGeometry>
        </mxCell>
        <mxCell id="-LHFxUvGMFsfbQdIlnXL-34" value="" style="triangle;whiteSpace=wrap;html=1;strokeWidth=1;fontSize=18;fillColor=#FFFFFF;" vertex="1" parent="1">
          <mxGeometry x="700" y="75" width="40" height="50" as="geometry" />
        </mxCell>
        <mxCell id="-LHFxUvGMFsfbQdIlnXL-35" value="" style="endArrow=classic;html=1;rounded=0;fontSize=18;entryX=0;entryY=0.5;entryDx=0;entryDy=0;" edge="1" parent="1" target="-LHFxUvGMFsfbQdIlnXL-34">
          <mxGeometry width="50" height="50" relative="1" as="geometry">
            <mxPoint x="540" y="100" as="sourcePoint" />
            <mxPoint x="590" y="50" as="targetPoint" />
          </mxGeometry>
        </mxCell>
        <mxCell id="-LHFxUvGMFsfbQdIlnXL-36" value="" style="endArrow=classic;html=1;rounded=0;fontSize=18;exitX=1;exitY=0.5;exitDx=0;exitDy=0;exitPerimeter=0;entryX=0.5;entryY=1;entryDx=0;entryDy=0;" edge="1" parent="1" source="-LHFxUvGMFsfbQdIlnXL-31" target="-LHFxUvGMFsfbQdIlnXL-34">
          <mxGeometry width="50" height="50" relative="1" as="geometry">
            <mxPoint x="610" y="140" as="sourcePoint" />
            <mxPoint x="660" y="90" as="targetPoint" />
            <Array as="points">
              <mxPoint x="720" y="195" />
            </Array>
          </mxGeometry>
        </mxCell>
        <mxCell id="-LHFxUvGMFsfbQdIlnXL-50" value="" style="shape=table;startSize=0;container=1;collapsible=0;childLayout=tableLayout;fontSize=16;fillColor=#CFCFCF;strokeWidth=1;" vertex="1" parent="1">
          <mxGeometry x="320" y="235" width="320" height="40" as="geometry" />
        </mxCell>
        <mxCell id="-LHFxUvGMFsfbQdIlnXL-51" value="" style="shape=tableRow;horizontal=0;startSize=0;swimlaneHead=0;swimlaneBody=0;strokeColor=inherit;top=0;left=0;bottom=0;right=0;collapsible=0;dropTarget=0;fillColor=none;points=[[0,0.5],[1,0.5]];portConstraint=eastwest;fontSize=16;" vertex="1" parent="-LHFxUvGMFsfbQdIlnXL-50">
          <mxGeometry width="320" height="40" as="geometry" />
        </mxCell>
        <mxCell id="-LHFxUvGMFsfbQdIlnXL-52" value="" style="shape=partialRectangle;html=1;whiteSpace=wrap;connectable=0;strokeColor=inherit;overflow=hidden;fillColor=none;top=0;left=0;bottom=0;right=0;pointerEvents=1;fontSize=16;" vertex="1" parent="-LHFxUvGMFsfbQdIlnXL-51">
          <mxGeometry width="40" height="40" as="geometry">
            <mxRectangle width="40" height="40" as="alternateBounds" />
          </mxGeometry>
        </mxCell>
        <mxCell id="-LHFxUvGMFsfbQdIlnXL-53" value="" style="shape=partialRectangle;html=1;whiteSpace=wrap;connectable=0;strokeColor=inherit;overflow=hidden;fillColor=none;top=0;left=0;bottom=0;right=0;pointerEvents=1;fontSize=16;" vertex="1" parent="-LHFxUvGMFsfbQdIlnXL-51">
          <mxGeometry x="40" width="80" height="40" as="geometry">
            <mxRectangle width="80" height="40" as="alternateBounds" />
          </mxGeometry>
        </mxCell>
        <mxCell id="-LHFxUvGMFsfbQdIlnXL-54" value="" style="shape=partialRectangle;html=1;whiteSpace=wrap;connectable=0;strokeColor=inherit;overflow=hidden;fillColor=none;top=0;left=0;bottom=0;right=0;pointerEvents=1;fontSize=16;" vertex="1" parent="-LHFxUvGMFsfbQdIlnXL-51">
          <mxGeometry x="120" width="200" height="40" as="geometry">
            <mxRectangle width="200" height="40" as="alternateBounds" />
          </mxGeometry>
        </mxCell>
        <mxCell id="-LHFxUvGMFsfbQdIlnXL-55" value="&lt;font style=&quot;font-size: 18px;&quot;&gt;&lt;b&gt;==&lt;/b&gt;&lt;/font&gt;" style="ellipse;whiteSpace=wrap;html=1;aspect=fixed;strokeWidth=1;" vertex="1" parent="1">
          <mxGeometry x="370" y="295" width="60" height="60" as="geometry" />
        </mxCell>
        <mxCell id="-LHFxUvGMFsfbQdIlnXL-56" value="" style="endArrow=classic;html=1;rounded=0;fontSize=18;exitX=0.25;exitY=1;exitDx=0;exitDy=0;entryX=0.5;entryY=0;entryDx=0;entryDy=0;" edge="1" parent="1" source="-LHFxUvGMFsfbQdIlnXL-50" target="-LHFxUvGMFsfbQdIlnXL-55">
          <mxGeometry width="50" height="50" relative="1" as="geometry">
            <mxPoint x="370" y="395" as="sourcePoint" />
            <mxPoint x="420" y="345" as="targetPoint" />
          </mxGeometry>
        </mxCell>
        <mxCell id="-LHFxUvGMFsfbQdIlnXL-57" value="" style="shape=or;whiteSpace=wrap;html=1;strokeWidth=1;fontSize=18;fillColor=#FFFFFF;fontColor=#333333;strokeColor=#666666;" vertex="1" parent="1">
          <mxGeometry x="500" y="325" width="40" height="50" as="geometry" />
        </mxCell>
        <mxCell id="-LHFxUvGMFsfbQdIlnXL-58" value="" style="endArrow=classic;html=1;rounded=0;fontSize=18;exitX=1;exitY=0.5;exitDx=0;exitDy=0;entryX=0;entryY=0.2;entryDx=0;entryDy=0;entryPerimeter=0;" edge="1" parent="1" source="-LHFxUvGMFsfbQdIlnXL-55" target="-LHFxUvGMFsfbQdIlnXL-57">
          <mxGeometry width="50" height="50" relative="1" as="geometry">
            <mxPoint x="350" y="425" as="sourcePoint" />
            <mxPoint x="400" y="375" as="targetPoint" />
            <Array as="points">
              <mxPoint x="460" y="325" />
              <mxPoint x="460" y="335" />
            </Array>
          </mxGeometry>
        </mxCell>
        <mxCell id="-LHFxUvGMFsfbQdIlnXL-59" value="" style="endArrow=classic;html=1;rounded=0;fontSize=18;" edge="1" parent="1">
          <mxGeometry width="50" height="50" relative="1" as="geometry">
            <mxPoint x="340" y="255" as="sourcePoint" />
            <mxPoint x="500" y="365" as="targetPoint" />
            <Array as="points">
              <mxPoint x="340" y="375" />
              <mxPoint x="460" y="375" />
              <mxPoint x="460" y="365" />
            </Array>
          </mxGeometry>
        </mxCell>
        <mxCell id="-LHFxUvGMFsfbQdIlnXL-60" value="" style="triangle;whiteSpace=wrap;html=1;strokeWidth=1;fontSize=18;fillColor=#FFFFFF;" vertex="1" parent="1">
          <mxGeometry x="700" y="230" width="40" height="50" as="geometry" />
        </mxCell>
        <mxCell id="-LHFxUvGMFsfbQdIlnXL-61" value="" style="endArrow=classic;html=1;rounded=0;fontSize=18;entryX=0;entryY=0.5;entryDx=0;entryDy=0;" edge="1" parent="1" target="-LHFxUvGMFsfbQdIlnXL-60">
          <mxGeometry width="50" height="50" relative="1" as="geometry">
            <mxPoint x="540" y="255" as="sourcePoint" />
            <mxPoint x="590" y="205" as="targetPoint" />
          </mxGeometry>
        </mxCell>
        <mxCell id="-LHFxUvGMFsfbQdIlnXL-62" value="" style="endArrow=classic;html=1;rounded=0;fontSize=18;exitX=1;exitY=0.5;exitDx=0;exitDy=0;exitPerimeter=0;entryX=0.5;entryY=1;entryDx=0;entryDy=0;" edge="1" parent="1" source="-LHFxUvGMFsfbQdIlnXL-57" target="-LHFxUvGMFsfbQdIlnXL-60">
          <mxGeometry width="50" height="50" relative="1" as="geometry">
            <mxPoint x="610" y="295" as="sourcePoint" />
            <mxPoint x="660" y="245" as="targetPoint" />
            <Array as="points">
              <mxPoint x="720" y="350" />
            </Array>
          </mxGeometry>
        </mxCell>
        <mxCell id="-LHFxUvGMFsfbQdIlnXL-63" value="" style="shape=table;startSize=0;container=1;collapsible=0;childLayout=tableLayout;fontSize=16;fillColor=#CFCFCF;strokeWidth=1;" vertex="1" parent="1">
          <mxGeometry x="320" y="395" width="320" height="40" as="geometry" />
        </mxCell>
        <mxCell id="-LHFxUvGMFsfbQdIlnXL-64" value="" style="shape=tableRow;horizontal=0;startSize=0;swimlaneHead=0;swimlaneBody=0;strokeColor=inherit;top=0;left=0;bottom=0;right=0;collapsible=0;dropTarget=0;fillColor=none;points=[[0,0.5],[1,0.5]];portConstraint=eastwest;fontSize=16;" vertex="1" parent="-LHFxUvGMFsfbQdIlnXL-63">
          <mxGeometry width="320" height="40" as="geometry" />
        </mxCell>
        <mxCell id="-LHFxUvGMFsfbQdIlnXL-65" value="" style="shape=partialRectangle;html=1;whiteSpace=wrap;connectable=0;strokeColor=inherit;overflow=hidden;fillColor=none;top=0;left=0;bottom=0;right=0;pointerEvents=1;fontSize=16;" vertex="1" parent="-LHFxUvGMFsfbQdIlnXL-64">
          <mxGeometry width="40" height="40" as="geometry">
            <mxRectangle width="40" height="40" as="alternateBounds" />
          </mxGeometry>
        </mxCell>
        <mxCell id="-LHFxUvGMFsfbQdIlnXL-66" value="" style="shape=partialRectangle;html=1;whiteSpace=wrap;connectable=0;strokeColor=inherit;overflow=hidden;fillColor=none;top=0;left=0;bottom=0;right=0;pointerEvents=1;fontSize=16;" vertex="1" parent="-LHFxUvGMFsfbQdIlnXL-64">
          <mxGeometry x="40" width="80" height="40" as="geometry">
            <mxRectangle width="80" height="40" as="alternateBounds" />
          </mxGeometry>
        </mxCell>
        <mxCell id="-LHFxUvGMFsfbQdIlnXL-67" value="" style="shape=partialRectangle;html=1;whiteSpace=wrap;connectable=0;strokeColor=inherit;overflow=hidden;fillColor=none;top=0;left=0;bottom=0;right=0;pointerEvents=1;fontSize=16;" vertex="1" parent="-LHFxUvGMFsfbQdIlnXL-64">
          <mxGeometry x="120" width="200" height="40" as="geometry">
            <mxRectangle width="200" height="40" as="alternateBounds" />
          </mxGeometry>
        </mxCell>
        <mxCell id="-LHFxUvGMFsfbQdIlnXL-68" value="&lt;font style=&quot;font-size: 18px;&quot;&gt;&lt;b&gt;==&lt;/b&gt;&lt;/font&gt;" style="ellipse;whiteSpace=wrap;html=1;aspect=fixed;strokeWidth=1;" vertex="1" parent="1">
          <mxGeometry x="370" y="455" width="60" height="60" as="geometry" />
        </mxCell>
        <mxCell id="-LHFxUvGMFsfbQdIlnXL-69" value="" style="endArrow=classic;html=1;rounded=0;fontSize=18;exitX=0.25;exitY=1;exitDx=0;exitDy=0;entryX=0.5;entryY=0;entryDx=0;entryDy=0;" edge="1" parent="1" source="-LHFxUvGMFsfbQdIlnXL-63" target="-LHFxUvGMFsfbQdIlnXL-68">
          <mxGeometry width="50" height="50" relative="1" as="geometry">
            <mxPoint x="370" y="555" as="sourcePoint" />
            <mxPoint x="420" y="505" as="targetPoint" />
          </mxGeometry>
        </mxCell>
        <mxCell id="-LHFxUvGMFsfbQdIlnXL-70" value="" style="shape=or;whiteSpace=wrap;html=1;strokeWidth=1;fontSize=18;fillColor=#FFFFFF;fontColor=#333333;strokeColor=#666666;" vertex="1" parent="1">
          <mxGeometry x="500" y="485" width="40" height="50" as="geometry" />
        </mxCell>
        <mxCell id="-LHFxUvGMFsfbQdIlnXL-71" value="" style="endArrow=classic;html=1;rounded=0;fontSize=18;exitX=1;exitY=0.5;exitDx=0;exitDy=0;entryX=0;entryY=0.2;entryDx=0;entryDy=0;entryPerimeter=0;" edge="1" parent="1" source="-LHFxUvGMFsfbQdIlnXL-68" target="-LHFxUvGMFsfbQdIlnXL-70">
          <mxGeometry width="50" height="50" relative="1" as="geometry">
            <mxPoint x="350" y="585" as="sourcePoint" />
            <mxPoint x="400" y="535" as="targetPoint" />
            <Array as="points">
              <mxPoint x="460" y="485" />
              <mxPoint x="460" y="495" />
            </Array>
          </mxGeometry>
        </mxCell>
        <mxCell id="-LHFxUvGMFsfbQdIlnXL-72" value="" style="endArrow=classic;html=1;rounded=0;fontSize=18;" edge="1" parent="1">
          <mxGeometry width="50" height="50" relative="1" as="geometry">
            <mxPoint x="340" y="415" as="sourcePoint" />
            <mxPoint x="500" y="525" as="targetPoint" />
            <Array as="points">
              <mxPoint x="340" y="535" />
              <mxPoint x="460" y="535" />
              <mxPoint x="460" y="525" />
            </Array>
          </mxGeometry>
        </mxCell>
        <mxCell id="-LHFxUvGMFsfbQdIlnXL-73" value="" style="triangle;whiteSpace=wrap;html=1;strokeWidth=1;fontSize=18;fillColor=#FFFFFF;" vertex="1" parent="1">
          <mxGeometry x="700" y="390" width="40" height="50" as="geometry" />
        </mxCell>
        <mxCell id="-LHFxUvGMFsfbQdIlnXL-74" value="" style="endArrow=classic;html=1;rounded=0;fontSize=18;entryX=0;entryY=0.5;entryDx=0;entryDy=0;" edge="1" parent="1" target="-LHFxUvGMFsfbQdIlnXL-73">
          <mxGeometry width="50" height="50" relative="1" as="geometry">
            <mxPoint x="540" y="415" as="sourcePoint" />
            <mxPoint x="590" y="365" as="targetPoint" />
          </mxGeometry>
        </mxCell>
        <mxCell id="-LHFxUvGMFsfbQdIlnXL-75" value="" style="endArrow=classic;html=1;rounded=0;fontSize=18;exitX=1;exitY=0.5;exitDx=0;exitDy=0;exitPerimeter=0;entryX=0.5;entryY=1;entryDx=0;entryDy=0;" edge="1" parent="1" source="-LHFxUvGMFsfbQdIlnXL-70" target="-LHFxUvGMFsfbQdIlnXL-73">
          <mxGeometry width="50" height="50" relative="1" as="geometry">
            <mxPoint x="610" y="455" as="sourcePoint" />
            <mxPoint x="660" y="405" as="targetPoint" />
            <Array as="points">
              <mxPoint x="720" y="510" />
            </Array>
          </mxGeometry>
        </mxCell>
        <mxCell id="-LHFxUvGMFsfbQdIlnXL-77" value="&lt;b&gt;V&lt;/b&gt;" style="text;html=1;strokeColor=none;fillColor=none;align=center;verticalAlign=middle;whiteSpace=wrap;rounded=0;fontSize=18;" vertex="1" parent="1">
          <mxGeometry x="310" y="45" width="60" height="30" as="geometry" />
        </mxCell>
        <mxCell id="-LHFxUvGMFsfbQdIlnXL-78" value="&lt;b&gt;Tag&lt;/b&gt;" style="text;html=1;strokeColor=none;fillColor=none;align=center;verticalAlign=middle;whiteSpace=wrap;rounded=0;fontSize=18;" vertex="1" parent="1">
          <mxGeometry x="370" y="45" width="60" height="30" as="geometry" />
        </mxCell>
        <mxCell id="-LHFxUvGMFsfbQdIlnXL-79" value="&lt;b&gt;Data block&lt;/b&gt;" style="text;html=1;strokeColor=none;fillColor=none;align=center;verticalAlign=middle;whiteSpace=wrap;rounded=0;fontSize=18;" vertex="1" parent="1">
          <mxGeometry x="460" y="45" width="150" height="30" as="geometry" />
        </mxCell>
        <mxCell id="-LHFxUvGMFsfbQdIlnXL-80" value="" style="endArrow=classic;html=1;rounded=0;fontSize=18;" edge="1" parent="1">
          <mxGeometry width="50" height="50" relative="1" as="geometry">
            <mxPoint x="740" y="100" as="sourcePoint" />
            <mxPoint x="770" y="100" as="targetPoint" />
          </mxGeometry>
        </mxCell>
        <mxCell id="-LHFxUvGMFsfbQdIlnXL-81" value="" style="endArrow=classic;html=1;rounded=0;fontSize=18;" edge="1" parent="1">
          <mxGeometry width="50" height="50" relative="1" as="geometry">
            <mxPoint x="740" y="254.71000000000004" as="sourcePoint" />
            <mxPoint x="770" y="254.71000000000004" as="targetPoint" />
          </mxGeometry>
        </mxCell>
        <mxCell id="-LHFxUvGMFsfbQdIlnXL-82" value="" style="endArrow=classic;html=1;rounded=0;fontSize=18;" edge="1" parent="1">
          <mxGeometry width="50" height="50" relative="1" as="geometry">
            <mxPoint x="740" y="414.71" as="sourcePoint" />
            <mxPoint x="770" y="414.71" as="targetPoint" />
          </mxGeometry>
        </mxCell>
        <mxCell id="-LHFxUvGMFsfbQdIlnXL-83" value="" style="endArrow=none;html=1;rounded=0;fontSize=18;" edge="1" parent="1">
          <mxGeometry width="50" height="50" relative="1" as="geometry">
            <mxPoint x="800" y="420" as="sourcePoint" />
            <mxPoint x="800" y="420" as="targetPoint" />
            <Array as="points">
              <mxPoint x="800" y="580" />
              <mxPoint x="840" y="540" />
              <mxPoint x="840" y="460" />
            </Array>
          </mxGeometry>
        </mxCell>
        <mxCell id="-LHFxUvGMFsfbQdIlnXL-84" value="" style="endArrow=none;html=1;rounded=0;fontSize=18;strokeWidth=3;" edge="1" parent="1">
          <mxGeometry width="50" height="50" relative="1" as="geometry">
            <mxPoint x="770" y="590" as="sourcePoint" />
            <mxPoint x="770" y="80" as="targetPoint" />
          </mxGeometry>
        </mxCell>
        <mxCell id="-LHFxUvGMFsfbQdIlnXL-85" value="" style="endArrow=classic;html=1;rounded=0;fontSize=18;" edge="1" parent="1">
          <mxGeometry width="50" height="50" relative="1" as="geometry">
            <mxPoint x="770" y="440" as="sourcePoint" />
            <mxPoint x="800" y="440" as="targetPoint" />
          </mxGeometry>
        </mxCell>
        <mxCell id="-LHFxUvGMFsfbQdIlnXL-86" value="" style="endArrow=classic;html=1;rounded=0;fontSize=18;" edge="1" parent="1">
          <mxGeometry width="50" height="50" relative="1" as="geometry">
            <mxPoint x="770" y="560" as="sourcePoint" />
            <mxPoint x="800" y="560" as="targetPoint" />
          </mxGeometry>
        </mxCell>
        <mxCell id="-LHFxUvGMFsfbQdIlnXL-87" value="" style="endArrow=classic;html=1;rounded=0;fontSize=18;" edge="1" parent="1">
          <mxGeometry width="50" height="50" relative="1" as="geometry">
            <mxPoint x="770" y="480" as="sourcePoint" />
            <mxPoint x="800" y="480" as="targetPoint" />
          </mxGeometry>
        </mxCell>
        <mxCell id="-LHFxUvGMFsfbQdIlnXL-88" value="" style="endArrow=classic;html=1;rounded=0;fontSize=18;" edge="1" parent="1">
          <mxGeometry width="50" height="50" relative="1" as="geometry">
            <mxPoint x="770" y="520" as="sourcePoint" />
            <mxPoint x="800" y="520" as="targetPoint" />
          </mxGeometry>
        </mxCell>
        <mxCell id="-LHFxUvGMFsfbQdIlnXL-89" value="" style="endArrow=classic;html=1;rounded=0;strokeWidth=1;fontSize=18;" edge="1" parent="1">
          <mxGeometry width="50" height="50" relative="1" as="geometry">
            <mxPoint x="840" y="505" as="sourcePoint" />
            <mxPoint x="880" y="505" as="targetPoint" />
          </mxGeometry>
        </mxCell>
        <mxCell id="-LHFxUvGMFsfbQdIlnXL-90" value="&lt;b&gt;Data&lt;/b&gt;" style="text;html=1;strokeColor=none;fillColor=none;align=center;verticalAlign=middle;whiteSpace=wrap;rounded=0;fontSize=18;" vertex="1" parent="1">
          <mxGeometry x="880" y="485" width="70" height="35" as="geometry" />
        </mxCell>
        <mxCell id="-LHFxUvGMFsfbQdIlnXL-93" value="" style="endArrow=classic;html=1;rounded=0;strokeWidth=1;fontSize=18;" edge="1" parent="1">
          <mxGeometry width="50" height="50" relative="1" as="geometry">
            <mxPoint x="200" y="325" as="sourcePoint" />
            <mxPoint x="370" y="325" as="targetPoint" />
          </mxGeometry>
        </mxCell>
        <mxCell id="-LHFxUvGMFsfbQdIlnXL-94" value="" style="endArrow=classic;html=1;rounded=0;strokeWidth=1;fontSize=18;entryX=0;entryY=0.5;entryDx=0;entryDy=0;" edge="1" parent="1" target="-LHFxUvGMFsfbQdIlnXL-29">
          <mxGeometry width="50" height="50" relative="1" as="geometry">
            <mxPoint x="260" y="325" as="sourcePoint" />
            <mxPoint x="310" y="275" as="targetPoint" />
            <Array as="points">
              <mxPoint x="260" y="170" />
            </Array>
          </mxGeometry>
        </mxCell>
        <mxCell id="-LHFxUvGMFsfbQdIlnXL-95" value="" style="endArrow=classic;html=1;rounded=0;strokeWidth=1;fontSize=18;entryX=0;entryY=0.5;entryDx=0;entryDy=0;" edge="1" parent="1" target="-LHFxUvGMFsfbQdIlnXL-68">
          <mxGeometry width="50" height="50" relative="1" as="geometry">
            <mxPoint x="260" y="325" as="sourcePoint" />
            <mxPoint x="310" y="275" as="targetPoint" />
            <Array as="points">
              <mxPoint x="260" y="485" />
            </Array>
          </mxGeometry>
        </mxCell>
        <mxCell id="-LHFxUvGMFsfbQdIlnXL-97" value="" style="endArrow=classic;html=1;rounded=0;strokeWidth=1;fontSize=18;" edge="1" parent="1">
          <mxGeometry width="50" height="50" relative="1" as="geometry">
            <mxPoint x="200" y="500" as="sourcePoint" />
            <mxPoint x="820" y="560" as="targetPoint" />
            <Array as="points">
              <mxPoint x="260" y="500" />
              <mxPoint x="260" y="600" />
              <mxPoint x="820" y="600" />
            </Array>
          </mxGeometry>
        </mxCell>
        <mxCell id="-LHFxUvGMFsfbQdIlnXL-98" value="" style="shape=xor;whiteSpace=wrap;html=1;strokeWidth=1;fontSize=18;fillColor=#FFFFFF;" vertex="1" parent="1">
          <mxGeometry x="800" y="330" width="50" height="40" as="geometry" />
        </mxCell>
        <mxCell id="-LHFxUvGMFsfbQdIlnXL-99" value="" style="endArrow=classic;html=1;rounded=0;strokeWidth=1;fontSize=18;entryX=0.175;entryY=0.25;entryDx=0;entryDy=0;entryPerimeter=0;" edge="1" parent="1" target="-LHFxUvGMFsfbQdIlnXL-98">
          <mxGeometry width="50" height="50" relative="1" as="geometry">
            <mxPoint x="720" y="195" as="sourcePoint" />
            <mxPoint x="770" y="145" as="targetPoint" />
            <Array as="points">
              <mxPoint x="750" y="195" />
              <mxPoint x="750" y="340" />
            </Array>
          </mxGeometry>
        </mxCell>
        <mxCell id="-LHFxUvGMFsfbQdIlnXL-100" value="" style="endArrow=classic;html=1;rounded=0;strokeWidth=1;fontSize=18;entryX=0.25;entryY=0.5;entryDx=0;entryDy=0;entryPerimeter=0;" edge="1" parent="1" target="-LHFxUvGMFsfbQdIlnXL-98">
          <mxGeometry width="50" height="50" relative="1" as="geometry">
            <mxPoint x="720" y="350" as="sourcePoint" />
            <mxPoint x="770" y="300" as="targetPoint" />
          </mxGeometry>
        </mxCell>
        <mxCell id="-LHFxUvGMFsfbQdIlnXL-101" value="" style="endArrow=classic;html=1;rounded=0;strokeWidth=1;fontSize=18;entryX=0.175;entryY=0.75;entryDx=0;entryDy=0;entryPerimeter=0;" edge="1" parent="1" target="-LHFxUvGMFsfbQdIlnXL-98">
          <mxGeometry width="50" height="50" relative="1" as="geometry">
            <mxPoint x="720" y="510" as="sourcePoint" />
            <mxPoint x="770" y="460" as="targetPoint" />
            <Array as="points">
              <mxPoint x="750" y="510" />
              <mxPoint x="750" y="360" />
            </Array>
          </mxGeometry>
        </mxCell>
        <mxCell id="-LHFxUvGMFsfbQdIlnXL-102" value="" style="endArrow=classic;html=1;rounded=0;strokeWidth=1;fontSize=18;exitX=1;exitY=0.5;exitDx=0;exitDy=0;exitPerimeter=0;" edge="1" parent="1" source="-LHFxUvGMFsfbQdIlnXL-98">
          <mxGeometry width="50" height="50" relative="1" as="geometry">
            <mxPoint x="850" y="350" as="sourcePoint" />
            <mxPoint x="880" y="350" as="targetPoint" />
          </mxGeometry>
        </mxCell>
        <mxCell id="-LHFxUvGMFsfbQdIlnXL-103" value="&lt;b&gt;hit&lt;/b&gt;" style="text;html=1;strokeColor=none;fillColor=none;align=center;verticalAlign=middle;whiteSpace=wrap;rounded=0;fontSize=18;" vertex="1" parent="1">
          <mxGeometry x="870" y="335" width="60" height="30" as="geometry" />
        </mxCell>
      </root>
    </mxGraphModel>
  </diagram>
</mxfile>
